# xmcd
#
# Track frame offsets:
#	150
#	12738
#	26923
#	41334
#	53365
#	68640
#	83936
#	100182
#	113428
#	126283
#	138750
#	150019
#	162264
#	173414
#	181598
#	191077
#	198529
#	208268
#	218747
#	234927
#	248297
#	258128
#	270836
#	286225
#
# Disc length: 4049 seconds
# Revision: 0
# Processed by: cddbd v1.5.2PL0 Copyright (c) Steve Scherf et al.
# Submitted via: dBpowerAMP V12.0
#
DISCID=2c0fcf18
DTITLE=Various Artist - 10 Years of European World of Bluegrass, Disc 1
DYEAR=2008
DGENRE=Bluegrass
TTITLE0=Fragment - Fields of Gold
TTITLE1=Blueland - Simple Life
TTITLE2=The Chapmans - Cold and Lonely
TTITLE3=Footprints - Nazaj U Mesto
TTITLE4=Liz Meyer - I've Got a Feelin'
TTITLE5=Tomas Pesko Band - Light in the Storm
TTITLE6=Fifty Fingers - Blue Lonesome Wind
TTITLE7=Nugget - Stop Me
TTITLE8=Louvat Brothers - St. Anne's Reel
TTITLE9=Bill Clifton and Pick of the Crop - Little Whitewashed Chimney
TTITLE10=Sunny Side - Dark as the Night
TTITLE11=4-Wheel Drive - All I Have to Do Is Dream
TTITLE12=Downhill - Joe Hill
TTITLE13=Jiri Kralik and The Rowdy Rascals - Ida Red
TTITLE14=Hunger Mountain Boys - Feast Here Tonight
TTITLE15=Relief - Callm the Storm
TTITLE16=Mideando String Quartet - Talk About Suffering
TTITLE17=Hickory Project - Hard Cicer
TTITLE18=Randy Waller and The Country Gentlemen - Southbound Train
TTITLE19=Zbynek Buresz - Blue Yodel No. 4
TTITLE20=Mike Stevens - Train 45
TTITLE21=Kate MacKenzie Band - Pan American Boogie
TTITLE22=Monogram - Big Spike Hammer
TTITLE23=Chris Jones and The Night Drivers - A Few Words
EXTD=
EXTT0=
EXTT1=
EXTT2=
EXTT3=
EXTT4=
EXTT5=
EXTT6=
EXTT7=
EXTT8=
EXTT9=
EXTT10=
EXTT11=
EXTT12=
EXTT13=
EXTT14=
EXTT15=
EXTT16=
EXTT17=
EXTT18=
EXTT19=
EXTT20=
EXTT21=
EXTT22=
EXTT23=
PLAYORDER=
